<svg width="91" height="81" viewBox="0 0 91 81" fill="none" xmlns="http://www.w3.org/2000/svg">
<g clip-path="url(#clip0_0_92)">
<path fill-rule="evenodd" clip-rule="evenodd" d="M84.5566 43.0001C85.4498 41.453 85.4498 39.5471 84.5566 38.0001L67.1934 7.92603C66.3002 6.37902 64.6496 5.42603 62.8632 5.42603H28.1367C26.3504 5.42603 24.6998 6.37902 23.8066 7.92602L6.44336 38.0001C5.5502 39.5471 5.55019 41.453 6.44336 43.0001L23.8066 73.0741C24.6998 74.6211 26.3504 75.5741 28.1367 75.5741H62.8632C64.6496 75.5741 66.3002 74.6211 67.1934 73.0741L84.5566 43.0001ZM31.053 53.4932V55.6905H43.841V53.4932L41.1824 53.2515L40.4573 52.5484V42.4629H43.072L50.6306 54.1085V55.6905H59.947V53.4932L56.717 53.2076L47.1369 38.2222L55.6843 28.0049L58.8264 27.6973V25.5001H48.697V27.6973L51.2239 27.917L51.4875 28.5103L41.7317 40.3536H40.4573V28.5543L41.1824 27.917L43.841 27.6973V25.5001H31.053V27.6973L33.7995 27.917L34.4807 28.5543V52.5484L33.7995 53.2515L31.053 53.4932Z" fill="white"/>
<path fill-rule="evenodd" clip-rule="evenodd" d="M90.1236 37.25C91.2847 39.2611 91.2847 41.7389 90.1236 43.75L70.6264 77.5202C69.4653 79.5313 67.3194 80.7702 64.9972 80.7702L26.0028 80.7702C23.6806 80.7702 21.5347 79.5313 20.3736 77.5202L0.876388 43.75C-0.284725 41.7389 -0.284725 39.2611 0.876388 37.25L20.3736 3.47982C21.5347 1.46871 23.6806 0.229819 26.0028 0.229819L64.9972 0.229819C67.3194 0.229819 69.4653 1.46871 70.6264 3.47982L90.1236 37.25Z" stroke="white" stroke-width="3"/>
</g>
<defs>
<clipPath id="clip0_0_92">
<rect width="91" height="81" fill="white"/>
</clipPath>
</defs>
</svg>
