<svg width="323" height="292" viewBox="0 0 323 292" fill="none" xmlns="http://www.w3.org/2000/svg">
<g opacity="0.440614" clip-path="url(#clip0_0_108)">
<path fill-rule="evenodd" clip-rule="evenodd" d="M302.297 155.005C305.516 149.433 305.516 142.567 302.297 136.995L239.697 28.6502C236.481 23.0838 230.54 19.6553 224.112 19.6553H98.8884C92.4597 19.6553 86.5191 23.0838 83.3029 28.6502L20.703 136.995C17.4837 142.567 17.4837 149.433 20.703 155.005L83.3029 263.35C86.5191 268.916 92.4597 272.345 98.8884 272.345H224.112C230.54 272.345 236.481 268.916 239.697 263.35L302.297 155.005ZM109.459 192.84V200.761H155.524V192.84L145.947 191.968L143.335 189.434V153.076H152.754L179.982 195.057V200.761H213.542V192.84L201.906 191.81L167.397 137.789L198.186 100.956L209.505 99.8469V91.9259H173.016V99.8469L182.119 100.639L183.069 102.778L147.926 145.472H143.335V102.936L145.947 100.639L155.524 99.8469V91.9259H109.459V99.8469L119.352 100.639L121.806 102.936V189.434L119.352 191.968L109.459 192.84Z" fill="#2E2F34"/>
<path fill-rule="evenodd" clip-rule="evenodd" d="M322.366 134.293C326.551 141.537 326.551 150.463 322.366 157.707L252.071 279.369C247.89 286.605 240.167 291.062 231.81 291.062L91.1901 291.062C82.8328 291.062 75.1099 286.605 70.9289 279.369L0.63428 157.707C-3.55081 150.463 -3.55081 141.537 0.634275 134.293L70.9289 12.6309C75.1099 5.39465 82.8328 0.937519 91.1901 0.937519L231.81 0.937519C240.167 0.937519 247.89 5.39466 252.071 12.6309L322.366 134.293Z" stroke="#2E2F34" stroke-width="10.8"/>
</g>
<defs>
<clipPath id="clip0_0_108">
<rect width="323" height="292" fill="white"/>
</clipPath>
</defs>
</svg>
